<?xml version="1.0" encoding="UTF-8" standalone="no"?>
<!-- Created with Inkscape (http://www.inkscape.org/) -->

<svg
   width="30.48mm"
   height="128.5mm"
   viewBox="0 0 30.480002 128.50002"
   version="1.1"
   id="svg8"
   inkscape:version="1.3 (1:1.3+202307231459+0e150ed6c4)"
   sodipodi:docname="SebsPlug.svg"
   xmlns:inkscape="http://www.inkscape.org/namespaces/inkscape"
   xmlns:sodipodi="http://sodipodi.sourceforge.net/DTD/sodipodi-0.dtd"
   xmlns="http://www.w3.org/2000/svg"
   xmlns:svg="http://www.w3.org/2000/svg"
   xmlns:rdf="http://www.w3.org/1999/02/22-rdf-syntax-ns#"
   xmlns:cc="http://creativecommons.org/ns#"
   xmlns:dc="http://purl.org/dc/elements/1.1/">
  <defs
     id="defs2" />
  <sodipodi:namedview
     id="base"
     pagecolor="#ffffff"
     bordercolor="#666666"
     borderopacity="1.0"
     inkscape:pageopacity="0.0"
     inkscape:pageshadow="2"
     inkscape:zoom="1.3936595"
     inkscape:cx="-49.151174"
     inkscape:cy="241.09189"
     inkscape:document-units="mm"
     inkscape:current-layer="layer1"
     showgrid="false"
     units="mm"
     inkscape:snap-bbox="true"
     inkscape:snap-page="true"
     inkscape:bbox-nodes="false"
     inkscape:snap-bbox-edge-midpoints="false"
     inkscape:window-width="1600"
     inkscape:window-height="900"
     inkscape:window-x="0"
     inkscape:window-y="30"
     inkscape:window-maximized="0"
     inkscape:snap-bbox-midpoints="true"
     inkscape:snap-nodes="false"
     inkscape:showpageshadow="2"
     inkscape:pagecheckerboard="0"
     inkscape:deskcolor="#d1d1d1" />
  <metadata
     id="metadata5">
    <rdf:RDF>
      <cc:Work
         rdf:about="">
        <dc:format>image/svg+xml</dc:format>
        <dc:type
           rdf:resource="http://purl.org/dc/dcmitype/StillImage" />
      </cc:Work>
    </rdf:RDF>
  </metadata>
  <g
     inkscape:label="Layer 1"
     inkscape:groupmode="layer"
     id="layer1"
     transform="translate(0,-168.49998)">
    <rect
       style="display:inline;opacity:1;vector-effect:none;fill:#002b2b;fill-opacity:1;fill-rule:evenodd;stroke:none;stroke-width:0.649358;stroke-linecap:butt;stroke-linejoin:miter;stroke-miterlimit:4;stroke-dasharray:none;stroke-dashoffset:0;stroke-opacity:1;paint-order:normal"
       id="rect420"
       width="30.48"
       height="128.5"
       x="5.9211732e-17"
       y="168.49997" />
    <path
       style="fill:#e2c5c5;stroke-width:0.264583;fill-opacity:1"
       id="path6"
       d="m 14.98055,171.62539 c -0.876656,0.18384 -1.719811,0.49599 -2.556355,0.81041 -0.738548,0.31497 -1.484126,0.60897 -2.240021,0.87877 -0.2645047,0.0849 -0.4789373,0.19609 -0.6051322,0.44787 -0.025807,0.0518 -0.081006,0.31847 -0.00472,0.10693 -0.054126,-0.0464 -0.7189369,0.44519 -0.8153429,0.5165 -0.4235971,0.33055 -0.8104754,0.70486 -1.1700372,1.10336 -0.1809486,0.20409 -0.3386884,0.42608 -0.4285398,0.68473 -0.044951,0.14965 -0.05661,0.30281 -0.045336,0.45809 0.033286,0.27606 0.1205236,0.5124 0.2861996,0.7353 1.1064313,1.23956 2.7334825,1.85629 4.2052325,2.59682 0.322199,0.18453 0.688061,0.22749 1.052293,0.24165 0.429421,-0.0257 0.840072,0.0912 1.256273,0.17475 0.440219,0.0949 0.872381,0.22062 1.315904,0.29954 0.353319,0.07 0.697952,0.1762 1.044699,0.27185 0.30183,0.0712 0.554575,0.24002 0.814857,0.40099 -7.4729988,-4.31194 -0.821183,-0.47325 0.354243,0.20249 1.069276,0.6147 -2.135928,-1.23398 -3.205403,-1.84834 -0.05464,-0.0314 0.107815,0.0653 0.160818,0.0994 0.119835,0.0771 0.195642,0.13155 0.311011,0.21214 0.305516,0.2411 0.584102,0.51409 0.877547,0.77008 0.256818,0.21096 0.479568,0.45327 0.665468,0.72805 0.154857,0.21831 0.216973,0.47424 0.272067,0.7315 0.05299,0.24836 -0.09934,0.39204 -0.269185,0.55083 -0.307405,0.27162 -0.687716,0.4198 -1.070919,0.54907 -0.395816,0.14383 -0.79966,0.24558 -1.217972,0.29117 -0.377254,0.0272 -0.755957,0.025 -1.133979,0.0253 -0.460818,0.003 -0.921622,-8.2e-4 -1.382437,-0.003 -0.407893,-0.003 -0.814803,0.0244 -1.216221,-0.0585 -1.2426193,-0.55437 -3.1167043,-1.70172 2.632759,1.5415 0.08798,0.0496 -0.169034,-0.11087 -0.25,-0.17127 -0.08651,-0.0645 -0.168037,-0.1355 -0.252056,-0.20325 -0.42338,-0.35887 -0.819056,-0.74807 -1.194561,-1.15628 -0.172816,-0.20693 -0.357641,-0.40533 -0.512765,-0.6263 -0.133208,-0.14884 -0.201158,-0.33346 -0.30712,-0.5021 -0.07027,-0.11399 -0.127141,-0.23443 -0.204618,-0.344 0,0 -3.6186854,-1.66723 -3.6186854,-1.66723 v 0 c 0.037439,0.14993 0.1278681,0.26693 0.1964336,0.40345 0.1044789,0.18279 0.229044,0.32412 0.2853941,0.52904 0.1703554,0.23101 0.3296849,0.47032 0.5333079,0.67539 0.3634608,0.43846 0.7728699,0.8342 1.193283,1.21776 1.3274598,1.20296 2.8971378,2.32395 4.6640398,2.66617 0.413008,0.0246 0.826787,0.01 1.240328,0.0138 0.461759,-9e-5 0.92351,-3.7e-4 1.385259,0.002 0.391892,-0.003 0.785771,-0.003 1.173425,-0.0686 0.428214,-0.083 0.84372,-0.21364 1.253005,-0.36393 0.4236,-0.16919 0.839755,-0.35712 1.171053,-0.68057 0.243741,-0.2443 0.467768,-0.50284 0.459667,-0.868 -0.0221,-0.29868 -0.09404,-0.60435 -0.209909,-0.87979 -0.167385,-0.31432 -0.361609,-0.61108 -0.63269,-0.84732 -0.291945,-0.258 -0.596534,-0.50093 -0.859117,-0.78988 -1.167767,-0.98587 -2.933291,-1.75855 -4.008328,-2.41054 -0.116106,-0.0704 9.276459,5.36304 -0.352942,-0.20343 -0.283171,-0.14858 -0.574591,-0.26529 -0.888491,-0.33244 -0.345434,-0.0933 -0.695683,-0.16889 -1.046443,-0.23913 -0.439044,-0.0985 -0.874456,-0.21352 -1.316314,-0.29954 -0.423769,-0.0844 -0.8499878,-0.11916 -1.2804104,-0.14918 -0.3448143,-0.0636 -0.6644484,-0.1759 -0.9634498,-0.3635 -1.1863967,-0.67128 -2.6436854,-1.54781 2.9260942,1.71924 0.06387,0.0375 -0.120024,-0.0389 -0.277532,-0.18506 -0.04364,-0.0405 -0.08106,-0.0872 -0.121596,-0.13082 -0.191163,-0.14863 -0.330714,-0.26819 -0.363721,-0.51883 -0.04112,-0.10897 -0.04682,-0.18538 -0.02586,-0.29929 0.02173,-0.21127 0.176031,-0.38194 0.296153,-0.54592 0.33187,-0.38584 0.712298,-0.72594 1.124974,-1.02401 0.268558,-0.18177 0.55218,-0.34639 0.844189,-0.46983 0.06312,-0.0802 0.189571,-0.21126 0.130488,-0.32288 0.08503,-0.0754 0.272452,-0.1475 0.390933,-0.2003 0.728844,-0.3022 1.447058,-0.62983 2.184997,-0.90982 0.830805,-0.30312 1.675498,-0.61628 2.564033,-0.68717 z"
       inkscape:label="logo" />
  </g>
</svg>
